<svg xmlns="http://www.w3.org/2000/svg" viewBox="0 0 1744 1744" fill="none" shape-rendering="auto"><metadata xmlns:rdf="http://www.w3.org/1999/02/22-rdf-syntax-ns#" xmlns:xsi="http://www.w3.org/2001/XMLSchema-instance" xmlns:dc="http://purl.org/dc/elements/1.1/" xmlns:dcterms="http://purl.org/dc/terms/"><rdf:RDF><rdf:Description><dc:title>Notionists</dc:title><dc:creator>Zoish</dc:creator><dc:source xsi:type="dcterms:URI">https://heyzoish.gumroad.com/l/notionists</dc:source><dcterms:license xsi:type="dcterms:URI">https://creativecommons.org/publicdomain/zero/1.0/</dcterms:license><dc:rights>Remix of „Notionists” (https://heyzoish.gumroad.com/l/notionists) by „Zoish”, licensed under „CC0 1.0” (https://creativecommons.org/publicdomain/zero/1.0/)</dc:rights></rdf:Description></rdf:RDF></metadata><mask id="viewboxMask"><rect width="1744" height="1744" rx="0" ry="0" x="0" y="0" fill="#fff" /></mask><g mask="url(#viewboxMask)"><g transform="translate(531 487)"><path d="M554 727.7c-99.2 297-363.8 388.6-503.7 19.8-19.3-50.7 31-69.5 66.2-91.9 24.1-15.3 36.8-28.5 35.3-42.2-7-64.4-36.9-243.8-36.9-243.8l-3-5.8s.7-1.6-2.2 1.2c-3 3-9.9 34.2-37 34.2-24.5 0-49.2-10.9-61-86.3C7.2 285.6 9.6 214 40 201c12.5-5.3 24-7.2 35.2-.8 11.3 6.4-13-22 112-126C268.4 6.4 396.7-3.5 448.5 8 500.3 19.5 552 44.8 574.9 98.5c27.8 65-25.9 114.3-14 262.5-2.2 53.6.8 171.2-146.6 210.6-28 7.5-19.3 48.4 22.7 58.4 67 21 117 72.3 117 97.9" fill="#fff"/><path fill-rule="evenodd" clip-rule="evenodd" d="m554 266.2.1-1.4c4.1-36.4 8.2-71.7 27.1-103.4 6.5 4.4 5.7 10 3.7 15.2-19.9 51.2-18 104.4-16.2 157.6l.4 14c2.1 66.4-14.5 126.8-58.7 177.5-15.4 17.6-35.8 29.8-56.5 40.3-21.4 11-25.9 20.1-19.2 43.6l.8 2.6c1.4 3.9 2.8 7.9-1 11.8-4.5 4.6-9.5 3.3-14.8 1.8l-.6-.1a406.4 406.4 0 0 1-137-68.3c-6-4.4-10.8-10.3-15.5-16.1l-.3-.4c-2.5-3-3-7.8.5-10.4 3.3-2.5 5.8-.5 8.7 1.8l1 .9a145.5 145.5 0 0 0 76.3 31.7c13.4 1.4 26.6.9 40 .4 7.4-.3 14.8-.6 22.3-.5 10.2 0 18.7-4.7 26.7-9.2l2.8-1.6c27.8-15.5 54.3-32.8 72.2-60.7 16.1-25 25.9-52.2 31.6-80.9 7.2-36.1 6.6-72.7 6-109.8-.3-12-.5-24.2-.5-36.4ZM50.6 190.8c21.9-1.7 34 11.2 44.3 26.3a140.4 140.4 0 0 1 22.4 61.5c.5 3.7 1 7.6-1.2 11.3-4.5.6-4.9-3-5-5.6-.5-20.7-9.7-38.7-18.9-56.1-6.6-12.5-16.2-24.6-31.4-27.6-17.2-3.5-33 12-40.8 32.2-14.5 37.6-12 74.6 1.4 111 5.8 15.9 13.1 32.1 27.8 43.2 14.8 11.3 32.7 9.3 43.6-5.7l2-2.5c2-2.6 4-5.1 5-8 2.1-5.8 5.4-11.2 11.3-10.4 6.8 1 8 8.3 8.7 14a3661 3661 0 0 0 22 156.7l5.9 38.8c2.6 17.1 5.6 41.7 3.6 52.1a28 28 0 0 0-.3 2.2c-.4 2.8-.6 5-4.2 5.5-4.9.8-7-2-7.7-6.4-2.3-17-3-23.6-4-49.6-.9-25.2-5.6-50-10.4-74.9l-5-27c-5.2-30.8-10.3-62-10.8-97l-2 3c-7.6 11.3-13.7 20.5-24.5 24a40.5 40.5 0 0 1-46.1-12.5 127.8 127.8 0 0 1-28.8-55.8c-8.4-34-9.9-67.1.9-100.6 5.2-16.1 23.7-44.7 42.2-42Zm34.6 127.5c4.4 3.2 8.4 6 12-5.4-1.1-42.2-14.7-69.2-35.8-70.3 11.2 14.6 22 28.8 23 48.5a32.3 32.3 0 0 1-10.7-8.8c-2-2.2-4-4.4-6.5-6l-3-2.4c-4.8-3.6-9.7-7.4-17.8-4.5 3.8 5.8 9 10 14.3 14 6 4.7 12 9.3 15.6 16.5-10.6 7.7-15.2 17.7-9.7 29.9 4.8 10.5 11.9 19.2 25.9 19.8-.6-6.3-4.7-10.9-8.8-15.4-5-5.4-9.7-10.6-7.5-18.6 3.2-1.5 6.2.7 9 2.7Z" fill="#000"/></g><g transform="translate(178 1057)"><path d="M1294.6 717H83.4l8.6-63.2S14.3 627.3 6.5 612c-7.8-15.3 84.3-214 97-245.4 12.6-31.5 76.6-148 135.7-174 39.7-17.3 137.8-75.2 175-91.5C419 99 431 81 438.6 68c7.6-13.2 15.7 13.4 42-28.5 6.7-10.6 34.7 7 50.7 17.3 13.6 9 36.7 44.5 142.6 37.8C817.5 85.7 837 19.3 853.6 29c24 14 53.8 56.5 53.8 56.5s109.8 69 138.7 91.6c59.5 46.4 123.1 81.9 180.6 251.6 19.9 58.6 78 160.2 86 173.2 8.2 13.1-27 36-27 36l8.9 79.1Z" fill="#fff"/><path d="M1063.5 198.7c-30.2-25.3-60-47-93.8-66.2-2.3-1.3-4.7-3.4-7.4-1.2-3.7 3.2-2.5 7.6-1.5 11.7 6.1 24.7.6 46.4-15.4 63.8a85.1 85.1 0 0 1-36 22.7c-9.3 3-12.6 8-9.8 19.7 5.4 21.8 11.7 43.1 11.2 66.9-.7 29-12.8 49.6-29.5 68.8-23 26.6-53.7 35.9-83.7 46.8a383.3 383.3 0 0 0-90.2 45.3c-15.2 10.7-23 30-30.6 48a292.5 292.5 0 0 0-18.6 77.1c-2.5 18.7 6 34.8 9.7 52 5 23.3 14.4 44.4 30.3 62-3.9.9-7.7.9-12.6.9a182.8 182.8 0 0 1-36-137.3c5.3-39.8 18.7-76.8 45.6-105.2 16-17 36.4-26.8 56.3-37 28.7-14.6 60-22.2 88.5-37 29-15.2 51.2-39.3 55.6-79a164 164 0 0 0-6.6-61c-5-19-.5-31.3 16.5-42 9.4-6 19.7-9.4 28.3-18a53 53 0 0 0 17.3-32.9c2.8-27.8-2-51.7-22.2-66.3-11.7-8.4-16-8-25.6 3.3-3.8 4.4-7.2 9-13.4 5.7-1.7-2.1-.3-4 .5-5.8 2.8-5.6 10.7-8.8 8.2-17-3.2-10.7-6.4-22-15.4-28.9-6.4-4.8-13-6.4-20-1.7-3.3 2.2-6.5 4.5-10 6-1.4.6-3 .6-4.5 0-1.4-.7-2.5-2-3.1-3.6-1.6-3.6.6-5.3 2.8-7.2 3.6-3 7-6.2 11-10-6.4-8-12.1-5.6-18-.9-10.3 8.4-20 18.1-31 24.8a211.2 211.2 0 0 1-100 31.7c-33.9 1.4-67.8 3.2-101.6.8C587 96.9 567.2 87 547.3 78c-16.4-7.4-31-18.4-46.8-27.1-13.5-7.4-20.5-4.6-28 10-9.5 18.5-7 33.2 8.6 49.4 3.6 3.8 11.3 7.6 7.2 13.5-5 7-10.2-1.5-14.1-4.9-10.8-9.4-20-20.4-21.1-37-.3-4-.5-8-5.2-8.5-3.6-.4-6 .9-8.5 4.5-8.2 12.4-8 18.6 3 36.7 2.5 4.3 5.8 8 2.2 14.2-11-4.8-14.8-17.1-20.7-27.2-6.6 5.5-4.4 11-2.9 16a147.9 147.9 0 0 0 62.4 81.8c13.7 9 27.5 18 42.7 22.9 36.4 11.6 72.3 26.3 111.4 23.3 25.9-2 52.2 3 77.7-6.3 6.7-2.4 9.2 2.5 8.5 9.1-2.5 26.3-7.4 51.7-21.2 74-22.7 36.6-55.2 59.4-88.8 80.6-25.8 16.3-54.8 25.3-79 45.5a190.8 190.8 0 0 0-46.5 54.3C465.5 544 462 588.6 471.9 635c5.2 24.8 19.8 43.2 34.4 61.4 5.3 6.6 11.2 12.7 17 19.8-3.8.9-7.7.9-12.5.9-24.9-24.6-46.3-51-53.4-88.3a217 217 0 0 1 .3-77.2c7.8-46 30.5-81.7 62.1-110.1 14.8-13.2 31-24 48.4-32.2 43.2-20.5 83.2-46.6 115.5-85.8a105 105 0 0 0 23.8-63.6H632c-27.8 0-54.3-7-80.8-15.8a296 296 0 0 1-70.4-33 163 163 0 0 1-66.8-82.4c-3.2-9-6.4-10.2-13.3-5.7-27.6 17.7-57.8 28.4-86.6 42.9-49.3 24.8-101.5 44.3-137.1 94.5a789 789 0 0 0-45.2 71.5C103.4 382.6 82.1 437.6 58 491c-13 28.6-26.3 57-37.6 86.5-9 23.4-7.5 27.2 14.7 34 13.4 4 26.3 11.1 40 13.5 36.2 6.4 68.5 24.7 101.7 40.3a530 530 0 0 1 77.1 41.6c4.9 3.4 11.4 2.2 15 9.2-9.6.8-19.2 1-28.8.3-45.3-26-93-39.7-138.8-62-5 23-10.7 42.1-11.6 62.6H77.1c-2.8-9.2.5-17.6 2.1-26.3 2.1-11.3 1.2-19.6-11.4-22-20.5-4-37.4-17.3-54.6-29.4-12.1-8.4-16-26.2-11.3-47 5.5-25 15.6-47.6 25.5-70.5 20.5-47.5 42-94.5 63.2-141.6 25.8-57 55.5-112 97.7-156.2 21-22 45.2-38.4 71.6-51.9 22.8-11.7 45.6-23.8 69-33.8 20-8.7 39-19.6 58.7-29 14.6-6.9 28.3-14.7 36-32.2 6.1-13.8 15.5-24.6 31.5-20.1 4.2 1.2 6-1.6 8.1-5 16-24.3 28-26.8 51.8-11.2 6.6 4.3 42.5 24.2 53 29.5 23.8 12 49.6 18 75.7 17.8 26.4-.2 52.8-2.6 79.1-4.5C753.8 81.4 782 68 809 52c9.8-5.8 18.4-14.6 27.8-21.6 11.3-8.4 23.5-6.9 33.5 3.9 4 4 8.3 7.3 13.2 9.7 13.1 7 17.5 24.3 27.8 32 10.4 7.7 25.2 7.9 34.6 20.6 6.3 8.6 16.4 11.6 25 17 248.7 157.4 198.5 193.2 296.6 375.9 17.1 31.9 29.5 66.4 46.1 98.5.2.3.3.7.6 1 16.3 27 13.1 39.2-14 52.2-7.1 3.4-10.8 6.6-9 16.9 3.3 18.7 4.7 37.8 6.7 57.8-4 1-8 1-13.1 0-4.2-10.9-3.7-21.1-3.7-31.3-.2-17.7-5.8-33.8-10.4-51.4-10.2 4-20 6.2-28.4 11.1-27 15.8-55 27.2-85 33-15.1 3-21.7 13.5-21.7 30.9.2 3 .5 5.9 1 8.8-5.1.1-10.2-.3-15.2-1.2-2.6-76 172-113.3 172-113.3s-32.1-68.2-55.2-126.2c-26.7-67.2-42.4-95.4-57.5-133.3-23.2-58.5-113.7-141.4-117.1-144.3Z" fill="#000"/><path d="M523.3 613.7c-10.3-30-7.6-58 5.5-85.1l5.3-11.2c2-4.7 5.2-8 9.8-5.6 4.4 2.2 3 6.6 1.7 11-3.4 12-9.4 22.8-12.7 35-7.8 29.1.5 53 16 75 6.4 9 14.9 16.3 16.1 29.2a88.3 88.3 0 0 1-41.7-48.3ZM829.8 163c16.4-22.2 34-33.7 45.2-29a35 35 0 0 1-11.2 12 133.7 133.7 0 0 0-38 39.3c-15.3 22.7-15.8 46.3-2.4 70.6a97.5 97.5 0 0 1 11.5 40.8c1.2 16.6-5.4 28.5-19.8 35.3-.5-.7-1.3-1.7-1.2-2 15.4-21.9 9-44.4 1.6-67-11.5-35.8-8.3-69.3 14.3-100Z" fill="#000"/></g><g transform="translate(266 207)"><path d="M696.2 325.5c-52.9-46.6-113 23.7-161.2 49.6a259.7 259.7 0 0 1-92.5 27.2c-10.3 1.2-21.4-2.5-33.4-4 5.7 12.2-.6 22.3-4.3 32.3a383.8 383.8 0 0 0-21.2 102.7c-.8 10-.8 29.5-10.2 31.3-8.5-11.5-10.5-23.4-14-34.7a88.2 88.2 0 0 0-33.9-45c-7.8-5.7-16.9-9.5-26.2-2a14 14 0 0 1-9-9.5c-7.7-25.8-14.2-51.6-7.5-78.8 6.6-26.7 12-53.7 22.8-79.4 5.3-12.6 15-22.4 24.6-32.4 2.7-2.9 6.4-5.2 5.8-9.5a110.4 110.4 0 0 1 5.9-43.5c5.5-19.9 18.2-37 35-51.5a211.3 211.3 0 0 1 55.7-33.1c6.8-3 10.3-7 11.5-13.6 10.6-55.4 80.7-79.5 128.6-62l1.2.4c11.8 3.3 45.6 5.8 58 3 25.8-6 49 2.7 72 9.7a149.8 149.8 0 0 1 58.1 33.7c3.7 3.3 7.7 4.6 12.6 4.2 21.8-2.1 39.8 4.7 55 18.1a16 16 0 0 0 11.2 4.5c36.3 0 58.6 16.6 69.3 46.4 1.5 4.5 4.9 7 9.4 8.6 28.6 9.8 41 30.4 46.4 55.1 1.2 5.6 4 8.8 8.8 11.4 13 7.2 21 17.2 22.2 30.9.4 4.3.8 8 6 10.2 16.8 7.2 20.2 20.8 19.3 35.1-.6 8.8-.6 18.2-7.4 25.8-4.3 4.9-.5 7.6 4 9.7 6.8 3.3 12.3 8.1 17.5 13 13.4 12.5 18 27.4 11.3 43.6-2.8 6.7-1.1 11.5 2.7 16.6 9.4 12.2 12.4 25.7 3 38.1-10.5 13.8-10.2 29.8-14.5 44.7-4.6 15.8-32.2 29.7-48.6 21.1-8-4.1-12.4-3-18.4 4.2-11.2 13.4-38 14.6-56 5a91 91 0 0 1-32-29.7c-2.2-3-3.3-5.6-8.6-5a54.8 54.8 0 0 1-56-28.1c-5.4-9-9.2-13.4-22.5-12-23.4 2.6-51.7-23.9-52.6-46.8-.4-10.1-.4-20.3-.1-30.5.2-8.8-4.3-15.8-12.2-20a49.5 49.5 0 0 1-27.4-34.8c-2.2-9.9-6-19.5-8.2-30.3Z" fill="#000"/></g><g transform="translate(791 871)"><path d="M182.3 95.7c-29.2 14-65.1 3-84.2-16-2.3-2.3-3.8-5.6-5.3-8.6-1-2.3-1.6-5 .7-7.1 2.2-2.1 4.7-1.8 7.1-.7 2.6 1.3 5.6 2.5 7.5 4.5 12.1 13 28 16.4 44.7 19C162 88 169 82.3 177 80.2c5.3-1.4 11-9 15-.7 3.3 6.8-1.3 12.9-9.7 16ZM66.6 57.4C71 45.2 80.3 40.6 90.8 37.9c5-1.3 10.8-1.7 13 4.3 2.4 7-3.2 10.9-8.3 12-7.3 1.4-12 4.6-15.4 11.2-2.2 4.3-5.7 9.7-11.7 7-7.2-3-3.8-9-1.8-15Z" fill="#000"/></g><g transform="translate(653 805)"></g><g transform="translate(901 668)"><path d="M82 57.5c4.9-6 9.2-11.2 13.8-16.2 2.5-2.8 6-4 9-1.2 3.5 3 1.3 5.8-.8 8.8C96 60.4 86 70.1 80.5 83.4c-4 9.8-5.3 19-2.3 29.6 5.8 19.9 10.5 40 15.1 60.2 3.3 14.4-2.3 23.8-16 29-4 1.6-7.9 3.2-11.7 5-16.4 8-30.4 1.5-44.4-8.6 3.8-8 9.6-10.7 18.5-5.7 8.7 5 32.7.6 39.6-6.8 4.5-5 1.4-9.7 0-14.4-5.8-19.7-14-38.7-15.6-59.8a68.6 68.6 0 0 1 18.4-54.4Z" fill="#000"/></g><g transform="translate(610 680)"><path d="M407.4 122.5c13 .3 25.4 1.1 37.6 2.5 3 .4 5 3.3 5 6.7 0 3.3-1.7 5.6-4.7 7-11.2 4.8-22 8.2-33.7.2-6.5-4.5-9-8.7-4.2-16.4ZM251.2 124c6.4 2.8 5.6 6.6 3 10.6-5.9 8.6-27.3 12.5-36 6.6-5-3.4-8-8-5.6-14 2.5-6.2 7.7-5.6 12.8-3.6 8.3 3.3 16.5 1.7 25.8.4ZM419.6 111c-4.2-9.5-9.9-15.2-19.8-15.7-6-.3-7-5.1-8.9-9.8 2-1.5 3.5-3.7 5.3-3.8 21.1-1.7 42.4-1.8 63.5-.1 6 .4 9.3 8 3.2 10.4-10 4-12.5 13.2-18.5 19.8-8.2 9-15.2 9.1-24.8-.8ZM229.6 81.1c12.2.7 23.1 1 34 2 3.6.3 8 1.8 8 6.7 0 5.6-4.6 5.2-8.3 5.1-6.3 0-9.7 2.7-12.5 8.6-3.4 7.4-6.9 15.3-18 14.8-10.5-.6-15.1-7.2-18.2-15.2-2-5.7-4.9-8.4-10.9-8.2-3.4.1-7.1-.2-7.5-4.9-.4-5 3-6 7-7.2a67.7 67.7 0 0 1 26.4-1.7Z" fill="#000"/></g><g transform="translate(610 680)"></g><g transform="translate(774 657)"><path d="M15 39C23.8 24.6 37 20.4 51.9 19c23.2-2.3 44 8.5 65.9 12.8 8 1.5 6.8 7.5 1.4 10.7-9.4 5.7-19.5 11-31.2 7-22.5-7.6-45.1-12-68.6-4.1-6.2 2-5-2-4.2-6.3ZM255 29c15-2.6 28.7-5.3 42.2 1.5 10.8 5.5 15 14 12.9 25.5-5 3.1-7.5-.4-10.6-2.5-11.6-7.9-23.9-10-37.3-4.6-9.3 3.7-19.2 2.4-29 2.4-4.7 0-8.4-1.8-8.7-7-.4-5.5.9-10.8 6.9-12 7.3-1.7 15-2.2 23.7-3.3Z" fill="#000"/></g><g transform="translate(0 559)"><path d="m14 1186.3 235.4 16.5s68.6-71.2 47.4-271.7c-3-29 27.8-209 29.3-222.7 4-36 21.3-104.9 40.1-131.2 85.3-119.3 74-138.5 79.3-166.4 5.7-29.4 15.4-80.4 21.3-100 2.7-9 22.5-72.8 4.8-75.8-84.4-14.2-65.4 148.2-97.5 133.2-49-23-59-87.3-59-87.3s-64.7-175.3-99-177.3c-14-.9 2.1 88.8 2.1 88.8s-72.3-95.6-89-95.7c-16.7 0 8 71.1 8 71.1s-34.8-30.2-48.7-20.8c-18.4 12.5 67 155.3 53.2 155.3-10.5 0-28.8-35.7-41.5-42.3-21.5-11.2-29.2-13.5-31.3 6.5-2.1 21.2 42.5 88.2 63 125.7 10.6 19.4 73.2 132 86.6 162.7 16.8 38.8-24.5 99.8-41.6 129.3-17 29.6-86.2 202.4-108.8 233.3-22.7 30.9-45.8 81.3-55.9 135.6-11.1 60.1 1.8 133.2 1.8 133.2Z" fill="#fff"/><path fill-rule="evenodd" clip-rule="evenodd" d="M339.5 676.2c-1.3 7.3-2.7 14.6-4.3 21.8l4.8-28.2a6441 6441 0 0 0-12.6 71c-1.7 10-3.2 20.1-4.7 30.2-5.7 40-9 80.4-12.3 120.7a72 72 0 0 1-3 13.7c-1.8 6.3-3.5 12.6-2.7 18.6 1.4 10.8 1.8 21.6 2.2 32.5.6 15.8 1.2 31.7 5 47.3a70 70 0 0 1 1.2 21.5c-2.6 41.7-9 82.4-24.5 121.6-8.2 20.8-18 40-34.2 56.2l-11.7-.6c3.8-10.5 9.6-19.8 15.5-29 4-6.5 8-12.9 11.4-19.7 9.3-19 15.8-39.1 19.2-60l.1-.8c3.3-19.3 6.7-38.7 7-58.5.2-12.4-.3-24.4-8-36l-9.8 27.5c-21.8 61.5-43.4 122.5-89.7 172.5a60 60 0 0 1-17-1c33-33.6 55.6-73.2 71.3-115.8l5.6-14.8c13.2-35.3 26.5-70.8 33.2-108.3 1.7-9.7 4-19.2 6.3-28.8 3.3-14 6.6-28 8.2-42.3l3.8-32.4c6.6-58 13.2-116 24.1-173.5a422.7 422.7 0 0 1 45.9-127.2c9.4-17 20-33.1 30.7-49.3 7.8-11.8 15.5-23.5 22.7-35.5l5-7.4c5.4-7.6 10.8-15.2 10.4-25.5-1.6-41.2 9-80.4 19.4-119.6l4.8-17.8c4.1-16 8-32.2 7.7-49-.1-10.2-5.5-14-13.7-9.2a114.9 114.9 0 0 0-45.8 57.3 209.2 209.2 0 0 0-12.5 61c-1.3 15.7-12.8 21.7-27.4 16.3-17.6-6.4-27.6-20.8-37.5-35l-.8-1c-9.3-13.4-14.5-28.6-19.7-43.8-2-6-4-12-6.4-17.8-17-43.3-35.4-86-56.6-127.5l-1.5-2.8c-7-14-14.6-28.8-31.8-36.2l2 18c4.6 42.6 9 84.4 22.8 124.8l-6.5 2.7c-24.8-57.6-53.8-112.2-101.5-155a26 26 0 0 0-2.6 18.5c3.7 23 13.8 43.4 23.9 63.8 3.6 7.2 7.2 14.5 10.5 21.8 4.5 10 9.8 19.8 15 29.5 3.5 6.4 6.9 12.7 10.1 19l.3.6c2.4 4.8 5 10.1.7 15.3-4.3-.7-5.6-3.3-6.8-5.7l-.3-.5a467 467 0 0 0-35-59.4c-11.7-17.5-23.4-35.1-39.8-49l-1.9-1.6c-4.4-4-9-8-14.4-3.7-6.3 5-4.8 13.3-1.6 20 4.6 9.6 9.4 19 14.1 28.5 6.2 12.5 12.5 25 18.4 37.7l7 15c10 21.4 20 42.8 29.5 64.4 1.9 4.4 3.2 9-3.7 13.3-11.6-9-20.8-20.5-30-32-12.6-15.7-25.3-31.4-44-41-6.6 8.2-8.6 15.5-2.3 26 9.6 16 18.6 32.5 27.6 48.8 6 11 12 22 18.2 33 5.6 9.8 10.5 20 15.3 30.3 6.6 13.9 13.1 27.8 21.6 40.6A683 683 0 0 1 216.9 536c13.8 31.2 9 61-2.7 90a915.5 915.5 0 0 1-50.6 100.5 597.7 597.7 0 0 0-35 79.5l-4.3 11.4-1.6 4.2c-9.7 25-19.4 50-27.2 75.7l-5.7 18.4c-6.9 21.8-13.7 43.6-17.9 66a426 426 0 0 0-5.8 100.3l.6 13.1c1.6 34.1 3.1 68 21.5 98.3l-34.6-2c-41.8-86.5-20.3-170.4 11.8-253.8a104 104 0 0 0-24.8 43.8c-7 21.9-13.3 43.9-17.8 66.4a342 342 0 0 0-2 137c.4 1 .9 2.2.8 3.8-4 .6-8 .4-11.8-.7l-.6-1.3c-3.1-7.4-6-14-6.6-21.4-2.2-25.4-3.5-51-2-76.3 2.4-38.4 13.7-75 25.2-111.5.8-2.2 1.4-4.5 2-6.8 1.4-5.5 2.8-11 5.8-16 12.7-21.3 25-42.8 37.3-64.4 7.6-13.3 15.2-26.6 23-39.8 13.7-23.7 24-49.1 34.2-74.6a703 703 0 0 1 27.3-62c6.4-12.4 12.3-25.1 18.1-37.8a656.8 656.8 0 0 1 24.7-49.9c14.1-24.8 18.5-49.6 10.6-76.5-7-23.7-19.5-44.7-32-65.7-4.1-7-8.3-14-12.3-21.1-4.5-8-9.3-16-14-23.8-8-13.1-16-26.2-22.6-40.1-10.4-22-22.2-43.2-34-64.4l-18.3-33-.7-1.5c-6.4-11.8-12.9-24-10.5-38.2 3-18 13.5-22.4 29.4-13.7 6.6 3.6 12.3 8.5 18 13.4 4.3 3.7 8.5 7.3 13.2 10.5-4.1-4.9-6-10.7-8-16.4a71.9 71.9 0 0 0-4-10.5c-12-23.7-23.3-48-33.7-72.5a26.6 26.6 0 0 1 6.5-30.7c7.6-6.7 17.3-5 25.7 1.3 2.3 1.7 5 2.9 7.8 4l3.6 1.7a56.7 56.7 0 0 1-6.6-36.5l.2-1.9c.6-6.8 1.1-13.6 8.4-16.6 8-3.2 15.6-1.8 22.5 4.2 16.2 13.8 29 30.3 42 46.9l1.6 2c3 3.6 5.5 7.5 8 11.4 4.6 6.7 9.1 13.4 15.2 19.3a310.8 310.8 0 0 1-9-60.3l-.4-3.3c-.7-5.8-1.4-11.2 5-14.8 7-4 13.3-.6 19 3.4 16.5 11.5 26.7 28 35.6 45.5a940 940 0 0 1 36.2 82.4c3 7.7 6.3 15.4 9.6 23a488.4 488.4 0 0 1 19.6 51.4 108 108 0 0 0 37.9 55c9.5 7.3 17.6 4.2 19.4-6.6l1.5-9.1c3.9-23.5 7.7-46.7 19.7-68.7 10-18.2 21.1-33.3 38.4-43.9 15.4-9.3 31-5.5 34.6 8.3a56 56 0 0 1 2 20.2c-2.5 22-8.5 43-14.5 64.2-3.1 11-6.3 22.1-9 33.3l-3.3 12.9a110.6 110.6 0 0 0-5.9 42c1.5 11.8.8 23.9-2 35.5-5.3 20.5-16.7 37.7-28 55-6.8 10.2-13.7 20.6-19.2 31.6-7.3 14.8-16.2 29-25 43.1-3.9 6.3-7.8 12.5-11.5 18.8-15.1 25.1-20.2 52.4-25.4 79.7ZM47.3 1056c0 .9-.1 1.7-.3 2.4-4 30.7 1.2 58.5 7 86.4-4-20.7-3.8-41.5-3.6-62.4 0-10.8.1-21.6-.3-32.4-2.6 1.5-2.7 3.8-2.8 6Z" fill="#000"/><path d="M273.6 406.4c1.5 24.2 6 46.1 19 66.5 6.3-5.2 5.6-9.6 4.2-13.5-13.4-37.4-9.8-76.3-10.2-114.9 0-2 0-4.2.2-6.4.2-4 0-7.9-5.5-8.1-5.4-.2-6.3 4.2-6.5 7.8-1 14.4-2.2 29-1.4 43.3.4 8 .5 16.1.2 25.3ZM246 540.3c-4.7-3-9-4.8-11.7.1-2 3.4 1.3 5.8 3.5 8.5a92 92 0 0 0 26.7 24.6c8.1 4.7 16 4.5 24.3 1.2 3-1.2 4.7-3.5 4.5-6.9-.4-4-3.4-4.3-6.5-4.4-17.3-.6-29.4-10.2-40.9-23.1ZM228 397c-5.5-2.2-10.3-3.5-14.8.3 5.8 10.8 28.6 23.9 39.5 22.5-2.5-13.5-15.4-15.6-24.6-22.8Z" fill="#000"/><path d="m1722 1194-240.1 4.4s-20.1-26.7-36.5-144.5c-4-28.4 12.9-82.2 10-162.5-4.2-124-27.7-283.6-31.8-294.3a1230.2 1230.2 0 0 0-75-150.5c-28.6-45.6-38.6-124.5-25.4-189.5 1.3-6.6 6-25.5 21.5-29.9 16-4.5 31.5 11.7 39.4 9 8-2.6 23.3-18.4 34.6-22.9s23.1-6 19.2-35.7c-1.8-13.7-34-163.7 1.5-168.4 31.5-4.2 40.8 78.1 48.5 108.6 10.8 43.5 13.5 95.5 18 103s35 26.3 48.1 50.8c13.2 24.4 13.2 54.2 9 81.9-6.7 43.7-41.9 134.8-19.4 205.1 13.8 43.4 120.8 304.8 142 357.7 20.5 51.7 51.8 143.4 51.8 173.3 0 58.4-15.4 104.5-15.4 104.5Z" fill="#fff"/><path fill-rule="evenodd" clip-rule="evenodd" d="M1649.7 1194c20.2-29.3 23.7-63.4 27.2-97.6l1.5-13.5c3.6-31.7 3.7-63.7.4-95.4a493 493 0 0 0-13.6-67.5l-5.4-22c-4-17.3-9.3-34.2-14.5-51-3.2-10.2-6.4-20.4-9.3-30.6a693 693 0 0 0-33.2-90.6c-4.4-10-9.1-20-13.9-30a509.4 509.4 0 0 1-30.6-74.8c-3-10.2-6.5-20.4-10-30.5-9-26.4-18-52.8-18.5-81-.4-30.1 6.5-59.4 13.4-88.6l.8-3.2c8-33.8 16-67.6 14.3-102.9-1.5-33.9-21-56.1-46.3-74.5-16.7-12.2-36.6-18-56.5-22a70 70 0 0 0-55.4 13.6c-9.1 6.5-9.4 18.2-1.7 30 17.7-23.3 41.1-19.2 63.9-15.2l7.7 1.3c5.3.8 10.6 2.4 16 4a126 126 0 0 0 17.2 4.2c7.8 1.2 11.8 5.4 15.8 13.6-14.5 3.5-27.4.1-40-3.1l-5.2-1.4-4.3-1c-13-3.4-25.6-6.6-39.5-4-17.3 3.3-27.5 12.2-28.7 29.9-.8 13.6-.4 27.3 0 40.9.2 6 2 12.9 9.7 12.5 6-.2 6-4.8 6.2-9.2v-2.7c2.4-28.6 34.4-55 62.6-50.6 3.2.5 6.5.8 9.8 1.2 11 1.2 22.1 2.3 31.8 9.1l2 1.3c2.7 1.6 5.4 3.2 3.8 7-2 4.9-6 3.7-10.3 2.4l-.6-.1-2.4-.7c-16.2-4.8-32.4-9.6-49.8-3.8a45.4 45.4 0 0 0-31 38.5 37.6 37.6 0 0 0 14.9 34.9c13.3 10.3 20.7 7.7 26.2-8 .8-2.3.6-5 .5-7.7-.3-5.1-.5-10.2 6-12.8 4.8-1.9 8.5.5 12.2 3a21 21 0 0 0 7.7 3.5 27.7 27.7 0 0 1 16.9 11.2c-5.7 6.7-11.2 4.7-16.7 2.8a27 27 0 0 0-7.3-1.8c-3 1.8-4 4.9-5 8-.3 1.2-.7 2.5-1.3 3.7-13 28.2-32 23.8-50.7 8.1h-.1c-2-1.7-4-3.4-5-5.6-5.4-13.2-13.5-20.1-29.4-18.6-7 .6-12-8.2-13-16.7a308.4 308.4 0 0 1-3-45.4c-5-.7-10-.7-15-.8-9.6 0-19.2 0-27.9-5-2.1-1.2-4-3.1-4.4-7.6 7.4-4.9 15.9-4.5 24.5-4 8.7.4 17.6.8 25.7-4-1-2-2.2-3.9-3.4-5.7-4.2-6.8-8.4-13.5-6.7-22.2.7-3.5-2.8-4.6-5.9-5.4a88 88 0 0 1-12-4.5c-14.7-6.3-26-.9-28.6 15-7.2 44-9 88.1-.2 132 3.5 17.5 10.3 34 20 49a465 465 0 0 1 29.6 55.4l9.7 20c7.2 14.5 13.2 29.5 19.2 44.4l10 24.6c16.2 37.5 21.7 77.4 26.7 117.5a1415 1415 0 0 1 10.2 131.4l1 26.3c1.2 23.8 4.7 47.2 8.1 70.6a1859 1859 0 0 1 4 28c5 37.4 16 73.3 26.9 109.1l4.5 14.8a320.6 320.6 0 0 0 64.2 119.8c-5.5.8-11.2.8-16.8 0-49.5-61.6-68-134.2-86.4-205.5l-3-11.9-.3 1-.2.5c-1.8 4.8-4 10.8-5.1 17.7-5 29-2.2 57.7.7 86.4a217 217 0 0 0 15.8 62.3c3 7.2 6.7 14 10.4 20.7 5.2 9.5 10.4 19 13.6 29.6H1483a161.4 161.4 0 0 1-30.8-58.1c-12-35.5-15.7-72-17-108.8-.4-11.2 2.5-22 5.4-32.6a129.9 129.9 0 0 0 6-39.9c1.4-22.8 2.7-45.4-.2-68.5a499 499 0 0 1-2.8-58.8c-.2-10.2-.2-20.4-.7-30.6v-1.1c-1-23.9-2-51.4-5-76l-2.2-21.5c-3.1-32.4-5.6-58-25.5-114.1-6.3-17.7-15-34.4-23.5-51-7.3-14.1-14.6-28.2-20.5-43a252.5 252.5 0 0 0-28.5-51c-15.9-22.6-19.8-48.4-23.7-74.3-.6-4.2-1.2-8.5-2-12.7-4.2-26.2-.8-51.9 2.6-77.5 1.2-9.7 2.5-19.4 3.4-29.1 2-21.4 22.8-30.8 49.1-24 4.2 1.1 8.2 2.6 12.4 4l6 2.2a56 56 0 0 1 29.5-21.3c14.3-3.8 14-12.7 13.7-24v-1c-.7-21.5-3.3-42.8-6-64.1-3.4-28.5-7-57-5.7-85.9 1-20.4 13.6-33.3 31.6-31 13.1 1.5 18.4 12.1 23.1 21.7 9.5 19.2 12.9 40.1 16.3 61 1.4 8.5 2.7 16.9 4.5 25.2 2.6 12.3 4.4 24.7 6.2 37.2 2.6 18.2 5.2 36.4 10.5 54.1l.2 1c.8 2.6 1.6 5.2 1.5 7.7-.5 9.7 4.4 15.3 12 20.7 26.4 18.5 44.4 44 50.4 75.3 4 20.7-.5 41.7-4.9 62.5l-1.9 9c-2.8 14-6 28-9.3 41.8a660.6 660.6 0 0 0-16.2 85.5c-1.9 18.9 3.1 36.6 9 53.5l1.4 4.2c8.2 23.4 16.3 46.8 26 69.7 21.1 49 40.8 98.5 59.7 148.3 3.2 8.4 6 17.1 8.6 25.8 5 16 10.1 32.2 18.3 46.8 11.8 21 22.3 42.7 32.8 64.4 7 14.4 14 28.9 21.3 43.1 2.7 5.2 3.8 10.8 5 16.3l1.4 7c9.4 37 18.5 74.2 18.6 112.7 0 25.4-2.8 50.8-6.5 76-1 7.4-4.2 13.8-7.8 21l-.7 1.3c-3.9.9-7.9.8-11.8 0l1.6-6.5c4.3-16.8 8.4-33.1 9-50.1 1.2-38.3.4-76.6-8.1-114.1l-1.6-6.9c-6.5-29.1-13.1-58.4-31.2-84 2 16.9 6.8 32.8 11.6 48.6 3.3 10.8 6.5 21.5 8.9 32.5 9.4 43.9 9.5 87.3-1.6 131-3.3 13.3-9 25.4-14.7 37.5l-6 12.8h-34.6ZM1440.9 142.3c2.7 19.6 5.5 39.4 3.5 60a85.2 85.2 0 0 1 36 6.3c5.7 1.9 11.4 3.8 17.2 5 2.5-4.3.7-7.5-1.2-10.7-1-2-2.2-4-2.3-6.2-2.5-37.3-10.6-73.6-18.7-109.9l-5.3-24c-3.3-14.6-9-28.5-17-41.1-2.3-3.8-5-6.8-10-6.6-5.4.3-6.9 4.7-8.2 8.6a76.3 76.3 0 0 0-2.1 35.4l1.3 8.8c1.7 10.6 3.4 21.6 2.8 34.2.3 13.5 2.1 26.8 4 40.2ZM1685.5 1148l4.5-22c4.1-29 4.9-56.2 5.7-83.6v-1.5c7.7 37 1 72.2-10.2 107Z" fill="#000"/><path d="M1523.3 552.2c-6.5 13.3-23.7 19-35.7 13.1-3.3-1.6-6-3.4-5.7-7.4.5-4.9 4.3-4.8 7.6-4.3 11.2 1.5 21.7-8.5 33.8-1.4Z" fill="#000"/></g></g></svg>