<svg xmlns="http://www.w3.org/2000/svg" viewBox="0 0 1744 1744" fill="none" shape-rendering="auto"><metadata xmlns:rdf="http://www.w3.org/1999/02/22-rdf-syntax-ns#" xmlns:xsi="http://www.w3.org/2001/XMLSchema-instance" xmlns:dc="http://purl.org/dc/elements/1.1/" xmlns:dcterms="http://purl.org/dc/terms/"><rdf:RDF><rdf:Description><dc:title>Notionists</dc:title><dc:creator>Zoish</dc:creator><dc:source xsi:type="dcterms:URI">https://heyzoish.gumroad.com/l/notionists</dc:source><dcterms:license xsi:type="dcterms:URI">https://creativecommons.org/publicdomain/zero/1.0/</dcterms:license><dc:rights>Remix of „Notionists” (https://heyzoish.gumroad.com/l/notionists) by „Zoish”, licensed under „CC0 1.0” (https://creativecommons.org/publicdomain/zero/1.0/)</dc:rights></rdf:Description></rdf:RDF></metadata><mask id="viewboxMask"><rect width="1744" height="1744" rx="0" ry="0" x="0" y="0" fill="#fff" /></mask><g mask="url(#viewboxMask)"><g transform="translate(531 487)"><path d="M554 727.7c-99.2 297-363.8 388.6-503.7 19.8-19.3-50.7 31-69.5 66.2-91.9 24.1-15.3 36.8-28.5 35.3-42.2-7-64.4-36.9-243.8-36.9-243.8l-3-5.8s.7-1.6-2.2 1.2c-3 3-9.9 34.2-37 34.2-24.5 0-49.2-10.9-61-86.3C7.2 285.6 9.6 214 40 201c12.5-5.3 24-7.2 35.2-.8 11.3 6.4-13-22 112-126C268.4 6.4 396.7-3.5 448.5 8 500.3 19.5 552 44.8 574.9 98.5c27.8 65-25.9 114.3-14 262.5-2.2 53.6.8 171.2-146.6 210.6-28 7.5-19.3 48.4 22.7 58.4 67 21 117 72.3 117 97.9" fill="#fff"/><path fill-rule="evenodd" clip-rule="evenodd" d="m554 266.2.1-1.4c4.1-36.4 8.2-71.7 27.1-103.4 6.5 4.4 5.7 10 3.7 15.2-19.9 51.2-18 104.4-16.2 157.6l.4 14c2.1 66.4-14.5 126.8-58.7 177.5-15.4 17.6-35.8 29.8-56.5 40.3-21.4 11-25.9 20.1-19.2 43.6l.8 2.6c1.4 3.9 2.8 7.9-1 11.8-4.5 4.6-9.5 3.3-14.8 1.8l-.6-.1a406.4 406.4 0 0 1-137-68.3c-6-4.4-10.8-10.3-15.5-16.1l-.3-.4c-2.5-3-3-7.8.5-10.4 3.3-2.5 5.8-.5 8.7 1.8l1 .9a145.5 145.5 0 0 0 76.3 31.7c13.4 1.4 26.6.9 40 .4 7.4-.3 14.8-.6 22.3-.5 10.2 0 18.7-4.7 26.7-9.2l2.8-1.6c27.8-15.5 54.3-32.8 72.2-60.7 16.1-25 25.9-52.2 31.6-80.9 7.2-36.1 6.6-72.7 6-109.8-.3-12-.5-24.2-.5-36.4ZM50.6 190.8c21.9-1.7 34 11.2 44.3 26.3a140.4 140.4 0 0 1 22.4 61.5c.5 3.7 1 7.6-1.2 11.3-4.5.6-4.9-3-5-5.6-.5-20.7-9.7-38.7-18.9-56.1-6.6-12.5-16.2-24.6-31.4-27.6-17.2-3.5-33 12-40.8 32.2-14.5 37.6-12 74.6 1.4 111 5.8 15.9 13.1 32.1 27.8 43.2 14.8 11.3 32.7 9.3 43.6-5.7l2-2.5c2-2.6 4-5.1 5-8 2.1-5.8 5.4-11.2 11.3-10.4 6.8 1 8 8.3 8.7 14a3661 3661 0 0 0 22 156.7l5.9 38.8c2.6 17.1 5.6 41.7 3.6 52.1a28 28 0 0 0-.3 2.2c-.4 2.8-.6 5-4.2 5.5-4.9.8-7-2-7.7-6.4-2.3-17-3-23.6-4-49.6-.9-25.2-5.6-50-10.4-74.9l-5-27c-5.2-30.8-10.3-62-10.8-97l-2 3c-7.6 11.3-13.7 20.5-24.5 24a40.5 40.5 0 0 1-46.1-12.5 127.8 127.8 0 0 1-28.8-55.8c-8.4-34-9.9-67.1.9-100.6 5.2-16.1 23.7-44.7 42.2-42Zm34.6 127.5c4.4 3.2 8.4 6 12-5.4-1.1-42.2-14.7-69.2-35.8-70.3 11.2 14.6 22 28.8 23 48.5a32.3 32.3 0 0 1-10.7-8.8c-2-2.2-4-4.4-6.5-6l-3-2.4c-4.8-3.6-9.7-7.4-17.8-4.5 3.8 5.8 9 10 14.3 14 6 4.7 12 9.3 15.6 16.5-10.6 7.7-15.2 17.7-9.7 29.9 4.8 10.5 11.9 19.2 25.9 19.8-.6-6.3-4.7-10.9-8.8-15.4-5-5.4-9.7-10.6-7.5-18.6 3.2-1.5 6.2.7 9 2.7Z" fill="#000"/></g><g transform="translate(178 1057)"><path d="M1303 692 16 688.7S53.5 481.5 111 360C236.9 93.7 489.4 44.3 511.3 56.7c32 18 62.3 40.7 151.4 40.7 91.1 0 148.8-39.5 148.8-39.5s135.3 32.3 200.6 69.5c83.1 47.4 177 187 220.2 295.9 46 115.6 70.7 268.7 70.7 268.7Z" fill="#fff"/><path fill-rule="evenodd" clip-rule="evenodd" d="M1296.8 692c-6.3-26-11.8-51.9-17.3-77.9l-8.4-39c-8-36.6-18.6-72.3-30-107.6a678.2 678.2 0 0 0-42.1-102.8l-7-13.7a802.4 802.4 0 0 0-27.6-50.7c-27.4-45.3-58.1-88.3-97-124a334.8 334.8 0 0 0-102.4-65c-7-2.8-13.8-6-20.7-9.1-7.9-3.7-15.8-7.3-24-10.5-10.6-4-14.4-.7-18.8 7.3-8 14.7-18 28-32.9 36-40.3 21.6-82.3 33.2-126.5 13.6a138 138 0 0 1-48.6-35.4c-6-7-12.2-8.3-20.5-9.5-22-3.3-36.7 4.7-49 23.1-16.3 24.2-42.3 33.2-69.5 35.8a146.6 146.6 0 0 1-108-31.8A203.2 203.2 0 0 1 402 86.5l-9.7 4.5c-6.9 3.1-13.6 6.2-19.8 10-9.6 6-19.7 11-29.8 16a347.3 347.3 0 0 0-34 18.9 454.4 454.4 0 0 0-85.4 73.7 604 604 0 0 0-86.3 122.8 869 869 0 0 0-50 108.1 1216.5 1216.5 0 0 0-34 102 562 562 0 0 0-20.2 102.2c-.6 6.8-2.1 13.6-3.7 20.4-1.9 8.3-3.8 16.8-4.1 25.8-5.5 1-10.6 1-16.9 1 4.5-32.9 9.7-66 16-98.8 2.3-12 5.3-23.7 8.3-35.4l5.3-21.5c5.2-22.6 12.6-44.6 20-66.6l.9-2.7a836.3 836.3 0 0 1 83-179c17-27.2 36-53 57.1-77 37.3-43 79.1-80.3 130-105.9l10.8-5.4c36-18.2 72-36.4 112-44.2 11.1-2.1 22.2-4.6 33-7.6 12.7-3.5 15.2-9.1 10.3-21.1l-1-2.2c-.7-1.6-1.4-3.3-1.7-5v-.4c-.6-3.6-1.2-7.8 3.8-8.9 4.3-1 5.5 1.6 7 5l.6 1.1c1.6 3.2 3 6.5 4.5 9.7 4.8 10.8 9.6 21.7 18.6 30.6a101 101 0 0 0 59.7 27.2l5.3.7c24.8 3.3 49.7 6.7 75 5.4 35.3-1.8 70.2-5.5 104-16.5 5.2-1.7 9.7-4.8 14-8.3 7-5.8 6.5-10.6.5-16.8-8.9-9.2-11-20.6-10.3-32.6 4-1.5 7-.5 7.6 1.8 7 30.4 29.6 36 55.8 39 33.8 3.8 66.1 14.3 98.5 25 25.4 8.5 48.3 21.6 71.2 34.6l18.6 10.5c25 13.8 47.2 32.1 66.9 53.2 22.7 24.3 43.9 50 62.4 77.6 16.1 24 31.5 48.6 45 74.5a1007.4 1007.4 0 0 1 86.5 242c5.6 25.4 9.8 51.3 14.1 77.5 2.2 13.2 4.3 26.4 6.7 39.7-3.2.9-6.7.9-11.2.9ZM573 143a83.8 83.8 0 0 0 49.7-37.7 17 17 0 0 0-9.2-3.5l-2.8-.5a470 470 0 0 0-19.9-3.9c-27-4.8-54-9.7-74-32.8-1.3-1.5-4.6-1.7-7-1.8-27.5-.5-53.4 6.9-79.4 14.3l-11.2 3.2c.8 5.6 2.6 9 5.8 12.2a224 224 0 0 0 39.6 32.5c32.9 21 67.9 30.7 108.4 18Zm224 .3c-31.6 4.3-57.1-9-81-27.6-1.6-1.7-3.3-3-4.9-4.2-3-2.4-5.7-4.5-6.9-8.4 10.1-3.8 20.6-5.8 31.1-7.9 11.2-2.1 22.4-4.3 33-8.6l5.4-1.8c4.3-1.4 8.7-2.8 11.8-5.8 16.7-16.2 36.2-15.6 56.2-10.6 13 3.3 26 7 39.5 11l19 5.6-5.6 6.5c-14.1 16.6-26.6 31.3-46.9 38.5-16.7 6-33.2 11-50.7 13.3Z" fill="#000"/><path d="M1115.6 692c-9.1-36.9-12.1-74.7-22-111.2-7.7-28.1-13.9-56.8-23.8-84-7-19.4-13.7-39-23-57.8-12.7-25-23.1-51.2-34.4-77-1.3-3-2.9-6.3 1.3-8.8 4.3-2.6 7.4-.5 9.8 2.6 3.8 5 7.8 10.2 10.6 15.9 10 20.4 19.4 41.1 29.1 61.6A612.7 612.7 0 0 1 1097 529c9 31.6 17.5 63.6 21.5 96.6 2.6 21.4 7 42.7 8.6 65.4-3.3 1-6.8 1-11.4 1ZM221.2 692c-.6-3 .4-5.8.4-8.7 0-49.6 9.6-98 16.6-146.7 5-35 13.3-69 22.5-102.9a253.5 253.5 0 0 1 31.6-69c2.3-3.6 4-10 10-6.9 6.1 3.2 3.2 9 1.4 13.6-7.2 17.6-15.9 34.7-21.8 52.7a748.3 748.3 0 0 0-31 138.7c-1 8.5-2.7 16.8-4.9 25-7.4 28.5-3.8 58.4-10.9 87-1.1 4.7.3 10.1.3 16.2-4.5 1-8.9 1-14.2 1Z" fill="#000"/><path fill-rule="evenodd" clip-rule="evenodd" d="M645.9 165.5c-9 6.6-10.5 15.7-3.6 28.3l4 2.7c2.3 1.5 4.3 3 6.5 3.6 9.5 3 17-2 21.6-9.1 4.7-7 5.5-16.9-1.9-22-7.3-5.1-16.6-10.9-26.6-3.5Zm5.4 17.4Zm0 0c3.8 2.8 7.6 3.4 10.9-.5a3.4 3.4 0 0 0-1.2-5.3c-4.4-1.6-9.2-2.6-9.7 5.8Z" fill="#000"/></g><g transform="translate(266 207)"><path d="M313.9 274.5c5.3-4 4.1-9 4.2-13.6.4-22.7 11.9-37.6 33.8-43.1 7-1.8 11.9-5 12.1-12.6.8-25.2 39.8-49.6 64-42.7 5.3 1.4 10.7 2.3 16 3.5 8.9-41.5 37.2-54.7 62.2-52.7 9 .8 17.7 2.7 26.2 5.6 6.5 2.2 10.2.5 14-4.7C583 63 658.8 47.9 715.2 73.2a85.6 85.6 0 0 1 26 17.5 21.9 21.9 0 0 0 21 7.1c32.7-4.3 54.4 22.2 61.3 46.6 4.8 17.1 10.1 31.3 24.7 43.2 68.2 56 39.4 119 39.2 119.6-14.3 33.2-3.3 34 3.5 50.9 9.5 24 7.7 47.3-10.8 66-7.1 7.4-10.8 12.4-11.2 23.4-.8 20.4-11.4 34.1-36.8 36-8.5-51.8 1.7-95.7-2.5-149.4a53.8 53.8 0 0 1-43 1.2c-2.9-1-5.3 2-7.3 4.4a72.3 72.3 0 0 1-87 23.7c-10-4-15.7-1.3-22.4 5.2a63 63 0 0 1-56.5 18.5c-8-1.3-16-2-24-2.3-7 0-11.6 4.4-14.7 10.7-14.4 28.7-38 42.1-69.9 40.7-19.9-.9-32.2 7-40.2 25.7a45.3 45.3 0 0 1-35.8 26c-27.6 3.6-37.3 30-40.2 52-1.5 11.6-1.1 23.7-6 34.4-8.4.3-7.5-5.3-8.4-9.7-3.9-20-7.5-40.3-18-58.1-7.7-13-16.4-25.6-34.8-23-11.3 1.5-18.4 9.8-26.5 16.4-3.2 2.7-5.8 6.2-8.6 9.4-14.3 16.3-17.5 16.5-30.4-2.6-13.7-20.3-23.5-44-12-69.7 4.6-10.5 0-19.7-2-29.7-6.8-35.6 3.8-67 25.1-95.3 12.2-16.3 28-28 46.9-37.5Z" fill="#000"/></g><g transform="translate(791 871)"><path d="M203 92.2c5.7-4 7-10.6 8.7-16.5 2-7-1.7-13-8.8-12-8.2 1-16.6 1.4-24.6 5a65 65 0 0 1-54 1.2c-8.1-3.7-16.7-6-25.5-7.1C86 61.3 80.5 67 81 79.5c.4 10.9 10.2 19.6 23.5 20.1 32 1.3 63.1-12.1 95.4-6 .4.1.8-.3 3-1.4Z" fill="#fff"/><path fill-rule="evenodd" clip-rule="evenodd" d="M123.6 54.3c-10-5.3-20.7-10.8-34-7.2C68.1 55.6 62.4 69.3 68.5 90c6.2 21 36.6 27.8 55.7 24.8 5.5-.8 11-2.3 16.6-3.8 13.8-3.6 27.6-7.2 42-1.8 13.1 5 23.4-.7 33-8 11-8.3 15.3-33 8.6-44.5-4.8-8.1-21.5-13-32.4-9a125 125 0 0 0-20.8 9.5c-14.3 8.6-27.5 7.1-42.1 0l-5.5-2.8ZM211 77.8c-1.5 5.4-3 11-8.1 14.4a62.1 62.1 0 0 0-3 1.4c-18.4-3.5-36.5-.6-54.6 2.3a208 208 0 0 1-40.8 3.7c-13.3-.5-23-9.2-23.5-20C80.5 67 86 61.2 98.8 62.7c8.8 1 17.4 3.4 25.5 7a65 65 0 0 0 54-1.1c6.6-3 13.4-3.7 20.2-4.5l4.4-.5c7.1-1 10.8 5 8.8 12l-.6 2.1Z" fill="#000"/></g><g transform="translate(653 805)"></g><g transform="translate(901 668)"><path d="M109.6 185c-9.9 23.2-31.7 22.6-50.5 27.2-5.4 1.5-11.1 1-16.2-1.5.1-8.5 5.5-10.3 12-10.1 10.5.2 19.9-4 29.3-7.7 8.5-3.3 12-8.2 6.4-17.6-9-15.2-17.7-30.6-21.7-48.3a87.5 87.5 0 0 1 1.8-46.4c1.3-4 1.9-9.1 8-7.3 5 1.5 4.3 5.9 3.3 9.6-9.2 33 5 60 22.2 86.1 3 4.8 6.1 9.1 5.4 16Z" fill="#000"/></g><g transform="translate(610 680)"><path d="M409.2 75.7c13.1.3 25.4 1 37.7 2.5 3 .3 4.9 3.3 5 6.6 0 3.4-1.8 5.7-4.8 7-11.1 4.9-22 8.3-33.7.2-6.5-4.4-8.9-8.6-4.2-16.3ZM254.7 78.4c6.2 3.3 5.2 7 2.1 10.8-6.5 8-28.2 10-36.4 3.5-4.7-3.8-7.3-8.6-4.4-14.4 3-6 8.2-5 13-2.5 8 4 16.4 3 25.7 2.6Z" fill="#000"/></g><g transform="translate(610 680)"></g><g transform="translate(774 657)"><path d="M47.1 22c23.6-.3 45.4-8.9 68.1-5.8 18.2 2.5 36.3 4 54.6.9 6.6-1.2 11.6 2 13 12 1.5-13.5 13.4-12.8 17.1-11.2 15.5 6.6 30.2 1 44.9-.5 20-2 48.5 10.6 58.3 28.4a52 52 0 0 0 4.4 6.1c2.8 3.7 7.3 7.2 3 12.1-4.1 4.6-9.2 1.7-13-.3C289 59 280.8 53.7 273 48a18 18 0 0 0-19-2.4 76.4 76.4 0 0 1-38.9 4.4c-14.4-1.5-29.5 3.4-43 2-21.5-2.5-43.2 3.4-64.2-3.5-8.4-2.8-16.7-6.9-25.1.2-.9.7-2.7 1.3-3.6.9-12.3-6-24.4 0-36.4.1-10.2 0-20.2 3-30.3 1.6-3.8-.5-9.2 2-11-3.6-2-6.2 4-8.2 7.5-10.3C17.4 32.2 26 26.7 36.7 26c3.2-.2 6.3-2.4 10.4-4Z" fill="#000"/></g><g transform="translate(0 559)"></g></g></svg>