<svg xmlns="http://www.w3.org/2000/svg" viewBox="0 0 1744 1744" fill="none" shape-rendering="auto"><metadata xmlns:rdf="http://www.w3.org/1999/02/22-rdf-syntax-ns#" xmlns:xsi="http://www.w3.org/2001/XMLSchema-instance" xmlns:dc="http://purl.org/dc/elements/1.1/" xmlns:dcterms="http://purl.org/dc/terms/"><rdf:RDF><rdf:Description><dc:title>Notionists</dc:title><dc:creator>Zoish</dc:creator><dc:source xsi:type="dcterms:URI">https://heyzoish.gumroad.com/l/notionists</dc:source><dcterms:license xsi:type="dcterms:URI">https://creativecommons.org/publicdomain/zero/1.0/</dcterms:license><dc:rights>Remix of „Notionists” (https://heyzoish.gumroad.com/l/notionists) by „Zoish”, licensed under „CC0 1.0” (https://creativecommons.org/publicdomain/zero/1.0/)</dc:rights></rdf:Description></rdf:RDF></metadata><mask id="viewboxMask"><rect width="1744" height="1744" rx="0" ry="0" x="0" y="0" fill="#fff" /></mask><g mask="url(#viewboxMask)"><g transform="translate(531 487)"><path d="M554 727.7c-99.2 297-363.8 388.6-503.7 19.8-19.3-50.7 31-69.5 66.2-91.9 24.1-15.3 36.8-28.5 35.3-42.2-7-64.4-36.9-243.8-36.9-243.8l-3-5.8s.7-1.6-2.2 1.2c-3 3-9.9 34.2-37 34.2-24.5 0-49.2-10.9-61-86.3C7.2 285.6 9.6 214 40 201c12.5-5.3 24-7.2 35.2-.8 11.3 6.4-13-22 112-126C268.4 6.4 396.7-3.5 448.5 8 500.3 19.5 552 44.8 574.9 98.5c27.8 65-25.9 114.3-14 262.5-2.2 53.6.8 171.2-146.6 210.6-28 7.5-19.3 48.4 22.7 58.4 67 21 117 72.3 117 97.9" fill="#fff"/><path fill-rule="evenodd" clip-rule="evenodd" d="m554 266.2.1-1.4c4.1-36.4 8.2-71.7 27.1-103.4 6.5 4.4 5.7 10 3.7 15.2-19.9 51.2-18 104.4-16.2 157.6l.4 14c2.1 66.4-14.5 126.8-58.7 177.5-15.4 17.6-35.8 29.8-56.5 40.3-21.4 11-25.9 20.1-19.2 43.6l.8 2.6c1.4 3.9 2.8 7.9-1 11.8-4.5 4.6-9.5 3.3-14.8 1.8l-.6-.1a406.4 406.4 0 0 1-137-68.3c-6-4.4-10.8-10.3-15.5-16.1l-.3-.4c-2.5-3-3-7.8.5-10.4 3.3-2.5 5.8-.5 8.7 1.8l1 .9a145.5 145.5 0 0 0 76.3 31.7c13.4 1.4 26.6.9 40 .4 7.4-.3 14.8-.6 22.3-.5 10.2 0 18.7-4.7 26.7-9.2l2.8-1.6c27.8-15.5 54.3-32.8 72.2-60.7 16.1-25 25.9-52.2 31.6-80.9 7.2-36.1 6.6-72.7 6-109.8-.3-12-.5-24.2-.5-36.4ZM50.6 190.8c21.9-1.7 34 11.2 44.3 26.3a140.4 140.4 0 0 1 22.4 61.5c.5 3.7 1 7.6-1.2 11.3-4.5.6-4.9-3-5-5.6-.5-20.7-9.7-38.7-18.9-56.1-6.6-12.5-16.2-24.6-31.4-27.6-17.2-3.5-33 12-40.8 32.2-14.5 37.6-12 74.6 1.4 111 5.8 15.9 13.1 32.1 27.8 43.2 14.8 11.3 32.7 9.3 43.6-5.7l2-2.5c2-2.6 4-5.1 5-8 2.1-5.8 5.4-11.2 11.3-10.4 6.8 1 8 8.3 8.7 14a3661 3661 0 0 0 22 156.7l5.9 38.8c2.6 17.1 5.6 41.7 3.6 52.1a28 28 0 0 0-.3 2.2c-.4 2.8-.6 5-4.2 5.5-4.9.8-7-2-7.7-6.4-2.3-17-3-23.6-4-49.6-.9-25.2-5.6-50-10.4-74.9l-5-27c-5.2-30.8-10.3-62-10.8-97l-2 3c-7.6 11.3-13.7 20.5-24.5 24a40.5 40.5 0 0 1-46.1-12.5 127.8 127.8 0 0 1-28.8-55.8c-8.4-34-9.9-67.1.9-100.6 5.2-16.1 23.7-44.7 42.2-42Zm34.6 127.5c4.4 3.2 8.4 6 12-5.4-1.1-42.2-14.7-69.2-35.8-70.3 11.2 14.6 22 28.8 23 48.5a32.3 32.3 0 0 1-10.7-8.8c-2-2.2-4-4.4-6.5-6l-3-2.4c-4.8-3.6-9.7-7.4-17.8-4.5 3.8 5.8 9 10 14.3 14 6 4.7 12 9.3 15.6 16.5-10.6 7.7-15.2 17.7-9.7 29.9 4.8 10.5 11.9 19.2 25.9 19.8-.6-6.3-4.7-10.9-8.8-15.4-5-5.4-9.7-10.6-7.5-18.6 3.2-1.5 6.2.7 9 2.7Z" fill="#000"/></g><g transform="translate(178 1057)"><path d="M1313.4 698 9.7 694.5s46.7-304.1 171.4-445C237 186.4 283.5 124.1 408.4 79.3c21.4-7.7 53.1-88 70.1-96.4 16.1-8 5.5 52.2 20.4 64.4a871.6 871.6 0 0 0 96 69.6c58.9 37.2 86 114.9 86 114.9s26.4-74.9 48.4-111.7c15.5-26 67.3-102.4 67.3-102.4s94.7 29.6 129.8 55.7c21.3 15.8 8.8 12.3 105.4 67.5 83.9 47.9 166.2 179.1 210 288 46.6 115.8 71.6 269 71.6 269Z" fill="#fff"/><path fill-rule="evenodd" clip-rule="evenodd" d="M1307 698c-6.7-27-12.5-54-18.3-81.1-2.5-12-5-24-7.7-35.8-8.2-37-19-73-30.9-108.8a740 740 0 0 0-42-101.5 795.8 795.8 0 0 0-56-96.5c-30-43.3-62.6-84.5-105.8-115.4-31.4-22.4-66.2-39.2-100.9-55.9-12.3-6-24.9-3.2-37.2-.5l-4 1c-9.9 2-19.6 4.2-29.4 6.4a1956 1956 0 0 1-35.3 7.7c-5.1 1-7 4-8.5 8.2l-6 17.5c-4.1 12.2-8.3 24.4-12.1 36.7-2.6 8.2-7 11.8-15.7 11.6-7.4-.1-14.8 0-22.2.2-8 .1-15.9.3-23.8.1-14-.3-20.9 4.7-19.2 21.5 1.9 18 1.8 36.1 1.8 54.3 0 10.7 0 21.4.3 32.2 1 27.5 1 55.3.5 82.7-1 51.3-1 102.6-1 154 .1 53.2.2 106.5-1 160.2a22.3 22.3 0 0 1-11.8.2c-1.3-54.1-1.9-107.3-1.6-160.5.2-31.8 0-63.7-.1-95.6-.4-63.9-.7-127.8 1.8-191.7.2-3.5-1-6.7-4.9-6.8a645 645 0 0 1-6.9 7.6c-12.8 14-25.4 27.8-31.4 47.9-8.3-9.6-11.7-20.8-15.1-31.5-3.7-11.9-7.3-23.3-17-31.9-2 5.8-2 11.1-2 16.5v33l.2 69-.1 84.4c-.1 61-.2 121.9 0 182.8.1 7.4 0 14.8-.3 22.1-.4 18.6-.9 37.2 2 55.6h-14.2a960.2 960.2 0 0 1-1.9-62.5v-399c0-24-7.7-30.8-30.6-37-38-10-76.2-20.9-105.4-49.7-10.8-10.6-22.4-5.3-32-1l-1.2.6c-8.6 4-17.5 6.9-26.4 9.8-12 4-24 8-35.1 14.3-2.3 1.2-4.4 2.6-6.6 4a80 80 0 0 1-13.2 7.2l-2.2 1c-3 1.4-5.9 2.7-9.3-.5-3.8-3.4-3.7-7-2-11.5l5.7-17.1c5-15.2 10-30.3 16.6-45l1-2c1.4-2.3 2.7-4.6 1.4-7.7-4-2.7-7.7-.7-11 1.1l-1.8 1-2.2 1-2 1c-42.4 21.3-84.8 42.6-119.8 76a651 651 0 0 0-69 75.8 742.6 742.6 0 0 0-97.7 174.6c-23.6 58.8-44 119-54.3 182-2 11.6-3.8 23.2-5.7 34.9l-7.9 47.7c-5.5 1-10.8 1-17.1 1 4.6-33 9.9-66 16.2-98.9 2.3-11.9 5.3-23.6 8.4-35.3 1.8-7.2 3.7-14.3 5.3-21.5a708.6 708.6 0 0 1 20.3-66.6l1-2.7a831.7 831.7 0 0 1 84-179 584 584 0 0 1 57-76.2c38-43.3 80-82 132.7-106.3 28.6-13.2 55.2-29 81.6-45.8 7.5-4.8 11-11.7 14.6-18.6 1.4-2.5 2.7-5.1 4.3-7.6 14.7-23.5 30-46.4 53.1-62.8l1.6-1.2c2.9-2.3 5.7-4.4 9.7-2 3.6 2 3.4 5.1 3.3 8.4v2.8c.6 16.6 2 33.1 3.4 49.6.5 5.3 2.7 10 8 12.4 22.4 10.3 41.5 25.3 60.6 40.4 11.5 9 23 18 35.2 26a212.8 212.8 0 0 1 71 74.6c2 3.6 3.5 7.4 5.2 11.8l2.6 6.6c9.3-37.5 29.3-68.2 49.3-98.7l11.7-18c2-3.2 3.6-6.6 5.2-10 2.2-4.6 4.4-9.2 7.8-13.4a20 20 0 0 0 2.4-21.7c-2.2-4.7-3.4-9.6-1.5-14.7 8.5-2.6 13 2.3 17.8 7.4l1 1c9-5.8 8-13.3 3.3-21.3-1.6-2.8-3-5.5-.6-8.2 2.3-2.5 5.4-2.2 8.4-1.3 37.1 10.7 74 22 108.2 40.6 4.7 2.6 9.6 5 14.5 7.3 13.3 6.4 26.6 12.8 36.3 23.5 15.4 17 35.1 26.2 54.8 35.4 11.8 5.6 23.5 11 34.4 18.2a376 376 0 0 1 67.4 53.7c23 24.3 44.5 50 63.2 77.6 16.4 24 32 48.6 45.6 74.5a856.2 856.2 0 0 1 48 109.3c12.5 34.7 23.2 69.9 32.7 105.5 6.8 25.8 11.2 52 15.5 78.3 3.7 22 7.3 44 12.4 66-3.2 1-6.7 1-11.4 1ZM654.7 183.2a365 365 0 0 0-80.3-71.5 262.2 262.2 0 0 1-25.9-19.5c-12-9.8-24-19.7-38.2-26.2-16.8-7.6-25.8-18.4-26.4-36.5v-2.4c-.1-3.9-.2-7.8-.7-11.6-.8-7.6-9.7-11.6-14.4-5.9-1.6 2-3.5 3.6-5.3 5.3a37 37 0 0 0-6.9 7.5c-23 36.6-45.8 73.2-62.4 113.3-2.2 5.4-3.7 12.5.9 16.9 3.7 3.6 8.4 1.7 13-.2a82 82 0 0 1 2.4-1l19.5-7.4c13.1-5.2 26.3-10.3 39.8-14.4 14.3-4.3 25.2-1.8 35.3 9.5a106 106 0 0 0 38.3 26c15.9 7 32.2 12.3 48.5 17.7 14.2 4.7 28.4 9.4 42.3 15.1 17.1 7 33 16.1 32.8 38.5 0 3.5.8 7 6.6 6.5 2.9-8 2.9-16-1.1-24l-5.2-10.6c-4-8-8-16.2-12.6-25.1ZM836 38.3l9 3.2L889.5 62a25418.5 25418.5 0 0 1 24.2 11c3.2 1.5 6.7 3 6.7 7.1 0 4.4-3.5 5-6.7 5.6l-1.8.4a992 992 0 0 0-14.5 3.6c-12.4 3.1-24.8 6.2-37.5 8.1-26.6 4-41 14.7-48.3 40.3-.9 3.2-2 6.4-3.2 9.5-1.6 4.5-3.1 9-4 13.4-2.5 12-10.2 13.2-19.5 14l-17.7 2c-9.7 1-19.4 2.2-29.2 2.8-8 .5-12.6 4.6-15.6 11-2.3 4.8-4.9 9.4-7.4 14-4.8 8.7-9.7 17.4-12.6 27-1.4 4.4-3.4 11-11.7 10.8 2-24 8-47.3 17.5-69.3 6.5-15 15.6-28.3 24.7-41.5 7.6-11.2 15.2-22.4 21.3-34.4 11.2-22.5 27.6-40.4 44.2-58.3l5.2-5.7c3.5-3.9 5.9-5 10.6-3.2 7.3 3 14.6 5.6 22 8.2Z" fill="#000"/><path d="M219.1 698c1.6-9.2.2-18.7.6-28 1.2-39.1 5.8-77.8 12-116.5A905 905 0 0 1 246 480c6-24.5 11.8-49.4 23-72.5 6.8-13.6 10.2-28.8 21.5-40 2.4-2.4 4.4-5.9 8.3-4 4.3 2 4 6.1 2.4 10-3.3 8.3-5.8 17.1-10.5 24.6-14 22.5-18.9 48.2-25 73-7.6 31.6-11 64.3-16.3 96.5-7 42.5-8.6 85.4-10.7 129.3-6.3 1.1-12.4 1.1-19.6 1.1ZM1122.7 698c-6.5-30.5-11.3-61.1-17.6-91.4-4.1-20-11-39.2-15.4-59-6.8-30.3-19-58.7-30.2-87.4-6.7-17.1-15.2-33.5-22.8-50.3-6.3-13.8-12.6-27.7-18.7-41.5-1.3-3.1-2.7-6.5 1.5-9 4.3-2.6 7.6-.5 9.8 2.7 5 6.9 10 13.8 13.9 21.3 16 32.2 32.7 64.2 43.8 98.4 7.4 22.8 15.5 45.6 21 69.2 3.8 16 8 32 11.7 48 7.2 32.3 12 65 14.6 98-3.4 1-7 1-11.6 1Z" fill="#000"/><path fill-rule="evenodd" clip-rule="evenodd" d="M912 320.4c-5.8-35.4-5-69 11.3-103.1 29.1 32.8 28.4 71 27.8 108.3l-.2 15.7c5 1.9 7.7.1 10.1-1.5l2.4-1.4c12.5-5.5 16.3-3.2 18.4 10.7 3.8 25.2 4 50.7 4.2 76.1l.1 11c0 6.9-3.7 11.9-8.5 15.1a194 194 0 0 0-34.6 33c-6.6 7.3-13.2 14.7-20.4 21.4-9.9 9-26.7 12-37.6 3.7l-10.5-7.9C858.7 489.7 843 478 828 465.1a49 49 0 0 1-18.1-48.5c1.7-10.4 2.6-21 3.5-31.7.8-8.4 1.5-16.8 2.6-25.2 2.8-20.7 6.7-23.1 25.5-14.9 1.7.7 3.4 1.2 5.1 1.6 4.5 1.2 9.2 2.5 13.3 8l2-15c1.6-12 3.1-23.1 3-34.4v-.6c0-1.6 0-3.6-.8-4.2-18-12.2-14.7-28.2-6.7-43.7l1-2a91.9 91.9 0 0 0 11.9-31.7c0-1.2 1.1-2.3 2-3.4l1.2-1.4 1.5.3 1.5.4c1.5 10.4 7 18.7 12.4 27.1 4.6 7.1 9.2 14.2 11.5 22.5 2.6 9.9 1 18.2-6.1 24.5-7 6.3-8 13.6-7 22l.7 6c.6 4.7 1.2 9.5 1.4 14.3.9 17.7 3.6 19.9 22.9 16.4 1.9-10 1.3-20-.3-31.1Zm29.3 142c1-1 2.2-1.9 3.3-2.8a74 74 0 0 1 7.5-5.9c14-9 20.8-20.6 18.4-38.3-1.3-9.7-1-19.5-1-29.4.2-5.1.2-10.2.1-15.3v-2.4c0-4.6 0-9.3-4-13-4.6 1-8.9 3-13.1 5-6 2.7-12 5.4-18.5 5.4-7.4 0-14.8.2-22.2.5-23.6.8-47.2 1.7-69.9-7.8-7.8-3.3-10.9-.8-11.3 7.4-1 20-3.5 39.8-7.1 59.4l-.1.4c-1.2 6.3-2.5 13.7 3.6 18.8a7267 7267 0 0 0 65.2 52.8c7.8 6.4 15.8 5 21.1-2.6a148 148 0 0 1 13.9-16c4.7-5 9.6-10.2 14-16.2ZM921 274.7c1.2.6 2.5 1.3 3.8.8l12-1.5c-8 8.2-12.9 8.3-21.1.8 1.9-1.9 3.6-1 5.3-.1Z" fill="#000"/></g><g transform="translate(266 207)"><path d="M285.9 361.5a626.9 626.9 0 0 1 50.8-83c14.5-19.4 28.8-39 47.6-54.5 24-19.9 50-35.2 80.2-44.6 25.8-8 51.2-6.9 77-5 7.7.6 11.5-2 11.8-9.5.3-7.6-.3-15.4.3-23 1.6-22.8 20-31.6 39-19.2a124.8 124.8 0 0 1 36.9 36.2c1.8 2.9 4 5.6 8.7 6.2 5.4-5.7 8.5-14 15.7-18.7 6-3.9 12.2-9.2 19.9-5 6.9 3.7 10 10.2 9.4 18.2v5.1c.1 13.4 0 23.1 18.4 29 26.3 8.4 49.2 26 70.6 44.5 40 34.8 62.7 80 73.3 130a488 488 0 0 1 12 107.6c-1 68 4.6 136 16.7 203 6.4 34.9 15 68.8 27.3 101.7 3.9 10.3 8.6 20.3 14.1 29.8 13 22.2 2.6 32.2-17.2 38.8-5 1.8-10.8 1.6-17.4 2.5 5.1 11.6-.8 15.3-11.5 17.2-43 7.7-30 7.8-71.5-4 6 11.6 0 15.8-10.1 17.3-26.6 4-52.5 4.8-75.3-13.2-6-4.7-9.4-10.8-12.8-17.2-4.3-8.2-2.4-14 6.2-18.6 34.4-18.4 57-48 74.3-81.7 15-28.8 25.6-59 30.1-91.4 1.7-11.7-.3-22.8-.4-34.2-.5-40-3-80.1 1.2-120 2-19.4 6.8-38.5 6-58.3-.6-18-6.5-27.4-23.5-31.4-27.7-6.6-54.7-14.5-79.1-29.8-6.6-4.1-15.6-3.2-22.6-.5-35.4 13.7-67.6 1-99.4-12.3-16.1-6.7-20.1-7.4-28.5 6.8-19.1 32.8-50.5 51.8-79.6 73.7-24.4 18.4-54.2 27.5-77.8 47.8-21.7 18.7-29.8 40.5-24.7 67.7a107.8 107.8 0 0 0 25.7 50.5c14.8 17.2 32.3 32.3 42 53.8 16 35 24.5 71 12.6 108.3-8 25.1-22.3 47.6-41 66.7-8.8 9-21.3 8-32.6 9.1-18.1 1.8-36.5 2.1-54.8 2.9-4.2.1-9.6.2-11.1-4.4-1.5-4.5.7-9 4.4-12.6 17.3-16.4 20.7-38.3 23.5-60.5a558.3 558.3 0 0 1-33.5 43.2c-10.7 12.5-21.4 25-36.5 32.8-28.1 14.4-56.6 12.3-85.3 2.5A108 108 0 0 1 169 849c-13-9-13.9-12.3-4.8-26-17.1-2-34-4.2-47.8-15.2-7.9-6.3-7-11.4 2.6-14.2 34.2-10.1 56.9-33.7 76.2-62.2 23-34 28-72.2 27.7-111.7 0-25.7 4.6-50.6 8.6-75.8 4.2-26.4 8.3-52.8 15-78.7 7.1-28.3 15.4-56.2 29.9-81.8 3.7-6.7 6-14 9.4-22Z" fill="#000"/></g><g transform="translate(791 871)"><path d="M169 101c4.8-14.2 4-16.2-9.8-18.7-10.2-1.8-19.3-6.3-29-9.4-10.9-3.5-18-13.8-29.5-16.5-6 29.8 33.7 56.5 68.2 44.7Z" fill="#fff"/><path fill-rule="evenodd" clip-rule="evenodd" d="M97.6 96.6a76.7 76.7 0 0 0 67.5 21.2l6.4-2.5c4.8-1.9 9.2-3.5 13.2-5.8 5.2-3 9.3-9.2 4.8-13.8-10-10.3-5-16.2 4-22.2 4-2.6 6.4-6.2 4.3-10.7-2.7-6-8-3.8-12-2a50 50 0 0 1-17.4 3.3c-24.8 2.8-44.9-9-64.8-20.5l-.6-.3c-11.8-7-19-4.6-20.5 9.2a50.7 50.7 0 0 0 15.1 44.1Zm61.6-14.3c13.9 2.5 14.6 4.5 9.7 18.8-34.5 11.8-74.2-15-68.2-44.7 6 1.5 11 5 15.8 8.6a49 49 0 0 0 13.7 8c3.3 1 6.5 2.2 9.7 3.4 6.3 2.4 12.5 4.8 19.3 6Z" fill="#000"/><path d="M67 37c8.2 3.7 7.7 9.3 4.2 15-2.6 4.5-6.5 7.2-11.7 4-4.8-3-3.7-7.1-1-11 2.2-3 3-7.3 8.5-8Z" fill="#000"/></g><g transform="translate(653 805)"></g><g transform="translate(901 668)"><path d="M53.4 96.7c.2-5.7.5-10.4.3-15-.2-7.3 3-10.2 10.5-8.5 2.8 10.7 2 22 1.1 32.7-1.8 19.6 7.7 32 23 41.6 19.6 12.3 25.6 32.7 13.4 48.6-19.8 25.4-56.3 21.8-75-4.1-2.2-3.2-1.4-7.5 0-11.2.9-2.3 1.9-5 5-5 3.8-.2 5.2 2.2 5.6 5.5 1.8 12.3 10.8 16.9 21.2 18.8 13 2.4 24.5-.5 32.3-12.4 7-10.7 5-20.9-6-26.9-25.4-13.7-35.9-34.6-31.4-64Z" fill="#000"/></g><g transform="translate(610 680)"><path d="M215.1 76.6c5-12 9-29.4 24.1-22.5 20.7 9.4 13.9 30.7 9.7 47.4-1.6 6.3-14.5 15.9-18.3 14.3-16.3-6.8-19.2-21.7-15.5-39.2ZM442 113.4c-8.6 7.5-17 7.6-22.2-1.5-9-16-8.6-32.8 3.3-47.2 2.5-3 13.8-3.6 16.3-1 14 15 14.6 31.8 2.6 49.7Z" fill="#000"/></g><g transform="translate(610 680)"></g><g transform="translate(774 657)"><path d="M131.2 43.2c-5.6 16.8-6.6 15.4-23 11.6-26.2-6-52.7-19.2-80.3-4.3-2 1.1-5 1-7.6.8-3.6-.2-8.2 1.3-10.1-3.3-2.1-5 1.5-8.3 5.3-10.3C35.2 27.7 53 13.4 77.9 16c12.8 1.3 26-2.8 39.3-2.4 18.8.7 22.4 5.7 16 23.9l-2 5.8ZM298.7 21.8c9.6 6.6 12.5 16.8 18.3 25a7 7 0 0 1-.6 9.4c-2.4 2.7-5.4 2.8-8.1 1.2-19.1-11-38.9-6.4-58-1.2-10.2 2.7-14.6-.8-17.2-9.2-1.7-5.7-2.9-11.5-3.6-17.4-1.3-9.8 6.9-11.9 13-12.2 18.5-.9 37.4-4.5 56.2 4.4Z" fill="#000"/></g><g transform="translate(0 559)"><path d="m1722 1194-240.1 4.4s-20.1-26.7-36.5-144.5c-4-28.4 12.9-82.2 10-162.5-4.2-124-27.7-283.6-31.8-294.3a1230.2 1230.2 0 0 0-75-150.5c-28.6-45.6-38.6-124.5-25.4-189.5 1.3-6.6 6-25.5 21.5-29.9 16-4.5 31.5 11.7 39.4 9 8-2.6 23.3-18.4 34.6-22.9s23.1-6 19.2-35.7c-1.8-13.7-34-163.7 1.5-168.4 31.5-4.2 40.8 78.1 48.5 108.6 10.8 43.5 13.5 95.5 18 103s35 26.3 48.1 50.8c13.2 24.4 13.2 54.2 9 81.9-6.7 43.7-41.9 134.8-19.4 205.1 13.8 43.4 120.8 304.8 142 357.7 20.5 51.7 51.8 143.4 51.8 173.3 0 58.4-15.4 104.5-15.4 104.5Z" fill="#fff"/><path fill-rule="evenodd" clip-rule="evenodd" d="M1649.7 1194c20.2-29.3 23.7-63.4 27.2-97.6l1.5-13.5c3.6-31.7 3.7-63.7.4-95.4a493 493 0 0 0-13.6-67.5l-5.4-22c-4-17.3-9.3-34.2-14.5-51-3.2-10.2-6.4-20.4-9.3-30.6a693 693 0 0 0-33.2-90.6c-4.4-10-9.1-20-13.9-30a509.4 509.4 0 0 1-30.6-74.8c-3-10.2-6.5-20.4-10-30.5-9-26.4-18-52.8-18.5-81-.4-30.1 6.5-59.4 13.4-88.6l.8-3.2c8-33.8 16-67.6 14.3-102.9-1.5-33.9-21-56.1-46.3-74.5-16.7-12.2-36.6-18-56.5-22a70 70 0 0 0-55.4 13.6c-9.1 6.5-9.4 18.2-1.7 30 17.7-23.3 41.1-19.2 63.9-15.2l7.7 1.3c5.3.8 10.6 2.4 16 4 5.7 1.7 11.4 3.4 17.2 4.2 7.8 1.2 11.8 5.4 15.7 13.6-14.4 3.5-27.3.1-39.9-3.1a439.6 439.6 0 0 0-9.5-2.5c-13-3.3-25.6-6.5-39.5-3.9-17.3 3.3-27.5 12.2-28.7 29.9-.8 13.6-.4 27.3 0 40.9.2 6 2 12.9 9.7 12.5 6-.2 6-4.8 6.2-9.2v-2.7c2.4-28.6 34.4-55 62.6-50.6 3.2.5 6.5.8 9.8 1.2 11 1.2 22.1 2.3 31.8 9.1l2 1.3c2.7 1.6 5.4 3.2 3.8 7-2 4.9-6 3.7-10.3 2.4l-.6-.1-2.4-.7c-16.2-4.8-32.4-9.6-49.8-3.8a45.4 45.4 0 0 0-31 38.5 37.6 37.6 0 0 0 14.9 34.9c13.3 10.3 20.7 7.7 26.2-8 .8-2.3.6-5 .5-7.7-.3-5.1-.5-10.2 6-12.8 4.8-1.9 8.5.5 12.2 3 2.5 1.5 5 3 7.7 3.5a27.7 27.7 0 0 1 16.9 11.2c-5.7 6.7-11.2 4.7-16.7 2.8a27 27 0 0 0-7.3-1.8c-3 1.8-4 4.9-5 8-.3 1.2-.7 2.5-1.3 3.7-13 28.2-32 23.8-50.7 8.1h-.2c-1.8-1.7-4-3.4-4.9-5.6-5.5-13.2-13.5-20.1-29.4-18.6-7 .6-12-8.2-13-16.7a309.8 309.8 0 0 1-3-45.4c-5-.7-10-.7-15-.8-9.7 0-19.2 0-27.9-5-2.1-1.2-4-3.1-4.4-7.6 7.4-4.9 15.9-4.5 24.5-4 8.7.4 17.6.8 25.7-4-1-2-2.2-3.9-3.4-5.7-4.2-6.8-8.4-13.5-6.7-22.2.7-3.5-2.8-4.6-5.9-5.4-4-1.2-8-2.7-12-4.5-14.7-6.3-26-.9-28.6 15-7.2 44-9 88.1-.2 132 3.5 17.5 10.3 34 20 49a465 465 0 0 1 29.6 55.4l9.7 20c7.2 14.5 13.2 29.5 19.2 44.4l10 24.6c16.2 37.5 21.7 77.4 26.7 117.5 4.1 33.8 7.3 67.5 9 101.5l1.2 30 1 26.2c1.2 23.8 4.7 47.2 8.1 70.6 1.4 9.3 2.8 18.6 4 28 5 37.4 16 73.3 26.9 109.1l4.5 14.8a320.4 320.4 0 0 0 64.2 119.8c-5.5.8-11.2.8-16.8 0-49.5-61.6-68-134.2-86.4-205.5l-3-11.9-.3 1-.2.5c-1.8 4.8-4 10.8-5.1 17.7-5 29-2.2 57.7.7 86.4 2.2 21.5 7.5 42.5 15.8 62.3 3 7.2 6.7 14 10.4 20.7 5.2 9.5 10.4 19 13.6 29.6H1483a161.4 161.4 0 0 1-30.8-58.1c-12-35.5-15.7-72-17-108.8-.4-11.2 2.5-22 5.4-32.6a130.5 130.5 0 0 0 6-39.9c1.4-22.8 2.7-45.4-.2-68.5-2.5-19.4-2.7-39-2.8-58.8-.2-10.2-.2-20.4-.7-30.6v-1.1c-1-23.9-2.1-51.4-5-76l-2.2-21.5c-3.1-32.4-5.6-58-25.5-114.1-6.3-17.7-15-34.4-23.5-51-7.3-14.1-14.6-28.2-20.5-43a252.5 252.5 0 0 0-28.5-51c-15.9-22.6-19.8-48.4-23.7-74.3-.6-4.2-1.2-8.5-2-12.7-4.2-26.2-.8-51.9 2.6-77.5 1.2-9.7 2.5-19.4 3.4-29.1 2-21.4 22.8-30.8 49.1-24 4.2 1.1 8.2 2.6 12.4 4l6 2.2a56 56 0 0 1 29.5-21.3c14.3-3.8 14-12.7 13.7-24v-1c-.7-21.5-3.3-42.8-6-64.1-3.4-28.5-7-57-5.7-85.9 1-20.4 13.6-33.3 31.6-31 13.1 1.5 18.4 12.1 23.1 21.7 9.5 19.2 12.9 40.1 16.3 61a539 539 0 0 0 4.5 25.2c2.6 12.3 4.4 24.7 6.2 37.2 2.6 18.2 5.2 36.4 10.5 54.1l.2 1c.8 2.6 1.6 5.2 1.5 7.7-.6 9.7 4.4 15.3 12 20.7 26.4 18.5 44.4 44 50.4 75.3 4 20.7-.5 41.7-4.9 62.5l-1.9 9c-2.8 14-6 28-9.3 41.8a658.9 658.9 0 0 0-16.2 85.5c-1.9 18.9 3.1 36.6 9 53.5l1.4 4.2c8.2 23.4 16.3 46.8 26 69.7 21.1 49 40.8 98.5 59.7 148.3 3.2 8.4 6 17.1 8.6 25.8 5 16 10.1 32.2 18.3 46.8 11.8 21 22.3 42.7 32.8 64.4 7 14.4 14 28.9 21.3 43.1 2.7 5.2 3.8 10.8 5 16.3l1.4 7c9.4 37 18.5 74.2 18.6 112.7 0 25.4-2.8 50.8-6.5 76-1 7.4-4.2 13.8-7.8 21l-.7 1.3c-3.9.9-7.9.8-11.8 0l1.6-6.5c4.3-16.8 8.4-33.1 9-50.1 1.2-38.3.4-76.6-8.1-114.1l-1.6-6.9c-6.5-29.1-13.1-58.4-31.2-84 2 16.9 6.8 32.8 11.6 48.6a406 406 0 0 1 8.9 32.5c9.4 43.9 9.5 87.3-1.6 131-3.3 13.3-9 25.4-14.7 37.5l-6 12.8h-34.6Zm-205.2-991.7a259 259 0 0 0-3.6-60c-1.9-13.5-3.7-26.8-4-40.3.6-12.6-1.1-23.6-2.8-34.2l-1.3-8.8a76.3 76.3 0 0 1 2-35.4c1.4-4 2.9-8.3 8.3-8.6 5-.2 7.7 2.8 10 6.6 8 12.6 13.7 26.5 17 41 9.5 44.4 19.3 99 23.4 124.9l4.1 26s-33.1-13.2-53.1-11.2Zm241 945.7 4.5-22c4.1-29 4.9-56.2 5.7-83.6v-1.5c7.7 37 1 72.2-10.2 107Z" fill="#000"/><path d="M1523.3 552.2c-6.5 13.3-23.7 19-35.7 13.1-3.3-1.6-6-3.4-5.7-7.4.5-4.9 4.3-4.8 7.6-4.3 11.2 1.5 21.7-8.5 33.8-1.4Z" fill="#000"/></g></g></svg>